Page Eight (2011) BBC HDTV 720p x264 mp4 aac w/subtitles [aularon]



- - -
Synopsis
- - -
Spy drama set in London and Cambridge. Johnny Worricker is a long-serving MI5 officer. His boss and best friend Benedict Baron dies suddenly, leaving behind him an inexplicable file, threatening the stability of the organisation. Meanwhile, a seemingly chance encounter with Johnny's striking next-door neighbour and political activist Nancy Pierpan seems too good to be true. Johnny is forced to walk out of his job, and then out of his identity to find out the truth.



- - -
Screenshots
- - - 
http://image.bayimg.com/iajphaadm.jpg 
http://image.bayimg.com/iajpjaadm.jpg 
http://image.bayimg.com/jajpmaadm.jpg 
http://image.bayimg.com/kajpgaadm.jpg 
http://image.bayimg.com/lajpaaadm.jpg 
http://image.bayimg.com/lajplaadm.jpg 
http://image.bayimg.com/lajpmaadm.jpg 
http://image.bayimg.com/lajpnaadm.jpg 
http://image.bayimg.com/lajpoaadm.jpg


- - -
URL
- - - 
http://www.bbc.co.uk/programmes/b0146fz0 
http://www.imdb.com/title/tt1797469/ [IMDB] 
https://secure.wikimedia.org/wikipedia/en/wiki/Page_Eight [Wikipedia]



- - -
Cast
- - -
Johnny Worricker  - - - - - - -    Bill Nighy
Nancy Pierpan  - - - - - - -    Rachel Weisz
Benedict Baron  - - - - - - -    Michael Gambon
Ralph Wilson  - - - - - - -    Tom Hughes
Jill Tankard  - - - - - - -    Judy Davis
Anthea Catcheside  - - - - - - -    Saskia Reeves
Rollo Maverley  - - - - - - -    Ewen Bremner
Muna Hammami  - - - - - - -    Rakhee Thakrar
Julianne Worricker  - - - - - - -    Felicity Jones
Max Vallance  - - - - - - -    Richard Lintern
Alec Beasley  - - - - - - -    Ralph Fiennes
Allegra Betts  - - - - - - -    Kate Burdette
Anna Herve  - - - - - - -    Holly Aird
Brian Lord  - - - - - - -    Andrew Cleaver
Emma Baron  - - - - - - -    Alice Krige
Joseph Pierpan  - - - - - - -    Bruce Myers
Leona Chew  - - - - - - -    Marthe Keller
Melissa Legge  - - - - - - -    Aisling Loftus
Ted Finch  - - - - - - -    James McArdle
Master of the College  - - - - - - -    Jay Benedict
Mrs Ashanti  - - - - - - -    Surendra Kochar
Cambridge Don  - - - - - - -    Bijan Daneshmand
Mini Cab Owner  - - - - - - -    Kriss Dosanjh
Priest  - - - - - - -    Hywel Morgan
Laurence  - - - - - - -    Larry David
Radio Announcer  - - - - - - -    Rory Morrison
Radio Announcer  - - - - - - -    Charlotte Green
Director  - - - - - - -    David Hare
Producer  - - - - - - -    David Heyman
Producer  - - - - - - -    David Barron
Producer  - - - - - - -    Rosie Alison
Producer  - - - - - - -    Celia Duval
Writer  - - - - - - -    David Hare 


- - -
Technical Details
- - -
General
Complete name                    : Page.Eight.2011/Page_Eight_-_Page_Eight_b0146fz0_default.mp4
Format                           : MPEG-4
Format profile                   : Base Media
Codec ID                         : isom
File size                        : 868 MiB
Duration                         : 1h 38mn
Overall bit rate                 : 1 230 Kbps
Movie name                       : Page Eight
Album                            : Page Eight
Performer                        : Page Eight
Genre                            : Drama,Thriller
Recorded date                    : 2011-08-28T21:00:00+01:00
Tagged date                      : UTC 2011-08-29 18:08:40
Writing application              : Lavf53.6.0
Cover                            : Yes
Comment                          : Recorded using get_iplayer, by Aularon.
rtng                             : 4
stik                             : 1
desc                             : Spy drama. Johnny (Bill Nighy) is a long-serving MI5 officer. His boss dies suddenly, leaving behind an inexplicable file which threatens the stability of the organisation.
tvnn                             : BBC HD
tvsh                             : Page Eight
tven                             : b0146fz0
catg                             : Drama,Thriller

Video
ID                               : 1
Format                           : AVC
Format/Info                      : Advanced Video Codec
Format profile                   : High@L4.1
Format settings, CABAC           : Yes
Format settings, ReFrames        : 6 frames
Format settings, GOP             : M=4, N=38
Codec ID                         : avc1
Codec ID/Info                    : Advanced Video Coding
Duration                         : 1h 38mn
Bit rate mode                    : Variable
Bit rate                         : 1 130 Kbps
Maximum bit rate                 : 3 500 Kbps
Width                            : 1 280 pixels
Height                           : 720 pixels
Display aspect ratio             : 16:9
Frame rate mode                  : Constant
Frame rate                       : 25.000 fps
Standard                         : PAL
Color space                      : YUV
Chroma subsampling               : 4:2:0
Bit depth                        : 8 bits
Scan type                        : Progressive
Bits/(Pixel*Frame)               : 0.049
Stream size                      : 797 MiB (92%)

Audio
ID                               : 2
Format                           : AAC
Format/Info                      : Advanced Audio Codec
Format profile                   : HE-AAC / LC
Codec ID                         : 40
Duration                         : 1h 38mn
Bit rate mode                    : Constant
Bit rate                         : 96.0 Kbps
Channel(s)                       : 2 channels
Channel positions                : Front: L R
Sampling rate                    : 48.0 KHz / 24.0 KHz
Compression mode                 : Lossy
Stream size                      : 66.8 MiB (8%)

- - -
Important Notice
- - -
The original movie is 1280x548, but this is 1280x720, i.e. there's two 86px borders at the top and the bottom of the screen.

I chose to keep it as is, instead of cropping the extra borders and re-encoding, since the borders do not add much to the final file size.



                   ______                                     
                  (____  \                                    
                   ____)  )_____  ____ _____ _   _  ___ _____ 
                  |  __  (| ___ |/ ___|____ | | | |/___) ___ |
             _ _ _| |__)  ) ____( (___/ ___ | |_| |___ | ____|
            (_|_|_)______/|_____)\____)_____|____/(___/|_____)
                                                              
                   ______ _                 _             
                  / _____) |               (_)            
                 ( (____ | |__  _____  ____ _ ____   ____ 
                  \____ \|  _ \(____ |/ ___) |  _ \ / _  |
                  _____) ) | | / ___ | |   | | | | ( (_| |
                 (______/|_| |_\_____|_|   |_|_| |_|\___ |
                                                   (_____|
                                  _      
                                 (_)     
                                  _  ___ 
                                 | |/___)
                                 | |___ |
                                 |_(___/ 

                    _______             _               
                   (_______)           (_)              
                    _       _____  ____ _ ____   ____   
                   | |     (____ |/ ___) |  _ \ / _  |  
                   | |_____/ ___ | |   | | | | ( (_| |_ 
                    \______)_____|_|   |_|_| |_|\___ (_)
                                               (_____|  

                                    ;)
                                    